{
	"asset":{
		"generator":"Khronos glTF Blender I/O v3.6.27",
		"version":"2.0"
	},
	"extensionsUsed":[
		"KHR_materials_specular",
		"KHR_materials_ior"
	],
	"scene":0,
	"scenes":[
		{
			"name":"Scene",
			"nodes":[
				0,
				1,
				3,
				4,
				6
			]
		}
	],
	"nodes":[
		{
			"name":"mesh_all1"
		},
		{
			"mesh":0,
			"name":"Text.002",
			"rotation":[
				0.70710688829422,
				0,
				0,
				0.7071066498756409
			],
			"scale":[
				0.4272444248199463,
				0.42724448442459106,
				0.42724448442459106
			],
			"translation":[
				-0.0030996249988675117,
				0.028661996126174927,
				0.000169688108144328
			]
		},
		{
			"mesh":1,
			"name":"arrow_model.001",
			"rotation":[
				0.70710688829422,
				0,
				0,
				0.7071066498756409
			],
			"scale":[
				10.000000953674316,
				10,
				10
			],
			"translation":[
				0.10000099241733551,
				0.06995432823896408,
				-36.30618667602539
			]
		},
		{
			"children":[
				2
			],
			"name":"arrow_root.001",
			"rotation":[
				0,
				-0.70710688829422,
				-0.7071066498756409,
				5.3385068810030134e-08
			],
			"scale":[
				0.01748090796172619,
				0.01748090796172619,
				0.01748090796172619
			],
			"translation":[
				-0.0012438846752047539,
				0.5483161211013794,
				6.809612386859953e-05
			]
		},
		{
			"mesh":2,
			"name":"Text",
			"rotation":[
				0.7071068286895752,
				0,
				0,
				0.7071067690849304
			],
			"scale":[
				0.4272444248199463,
				0.4272444248199463,
				0.4272444248199463
			],
			"translation":[
				-0.0030996249988675117,
				0.028661996126174927,
				0.000169688108144328
			]
		},
		{
			"mesh":3,
			"name":"arrow_model",
			"rotation":[
				0.70710688829422,
				0,
				0,
				0.7071066498756409
			],
			"scale":[
				9.999999046325684,
				9.999999046325684,
				9.999999046325684
			],
			"translation":[
				0.10000097006559372,
				0.06995431333780289,
				-36.306182861328125
			]
		},
		{
			"children":[
				5
			],
			"name":"arrow_root",
			"rotation":[
				0,
				-0.70710688829422,
				-0.7071066498756409,
				5.3385068810030134e-08
			],
			"scale":[
				0.017480909824371338,
				0.017480909824371338,
				0.017480909824371338
			],
			"translation":[
				-0.0012438846752047539,
				0.5483161211013794,
				6.809612386859953e-05
			]
		}
	],
	"animations":[
		{
			"channels":[
				{
					"sampler":0,
					"target":{
						"node":2,
						"path":"translation"
					}
				},
				{
					"sampler":1,
					"target":{
						"node":2,
						"path":"rotation"
					}
				},
				{
					"sampler":2,
					"target":{
						"node":2,
						"path":"scale"
					}
				}
			],
			"name":"arrow_modelAction",
			"samplers":[
				{
					"input":16,
					"interpolation":"LINEAR",
					"output":17
				},
				{
					"input":18,
					"interpolation":"STEP",
					"output":19
				},
				{
					"input":18,
					"interpolation":"STEP",
					"output":20
				}
			]
		},
		{
			"channels":[
				{
					"sampler":0,
					"target":{
						"node":5,
						"path":"translation"
					}
				},
				{
					"sampler":1,
					"target":{
						"node":5,
						"path":"rotation"
					}
				},
				{
					"sampler":2,
					"target":{
						"node":5,
						"path":"scale"
					}
				}
			],
			"name":"arrow_modelAction",
			"samplers":[
				{
					"input":16,
					"interpolation":"LINEAR",
					"output":21
				},
				{
					"input":18,
					"interpolation":"STEP",
					"output":22
				},
				{
					"input":18,
					"interpolation":"STEP",
					"output":23
				}
			]
		}
	],
	"materials":[
		{
			"doubleSided":true,
			"name":"Material.001",
			"pbrMetallicRoughness":{
				"baseColorFactor":[
					0,
					0.170234814286232,
					0.4910208284854889,
					1
				],
				"metallicFactor":0,
				"roughnessFactor":0.4000000059604645
			}
		},
		{
			"doubleSided":true,
			"emissiveFactor":[
				0,
				0.27450981736183167,
				0.5686274766921997
			],
			"name":"arrow_material.001",
			"pbrMetallicRoughness":{
				"baseColorFactor":[
					0.3490196168422699,
					0.32156863808631897,
					1,
					1
				],
				"roughnessFactor":0.5530382990837097
			}
		},
		{
			"doubleSided":true,
			"name":"Material",
			"pbrMetallicRoughness":{
				"metallicFactor":0,
				"roughnessFactor":0.4000000059604645
			}
		},
		{
			"doubleSided":true,
			"emissiveFactor":[
				0,
				0.27450981736183167,
				0.5686274766921997
			],
			"extensions":{
				"KHR_materials_specular":{
					"specularColorFactor":[
						2.371357614441398,
						2.371357614441398,
						2.371357614441398
					]
				},
				"KHR_materials_ior":{
					"ior":1.4500000476837158
				}
			},
			"name":"arrow_material",
			"pbrMetallicRoughness":{
				"baseColorFactor":[
					0.3490196168422699,
					0.32156863808631897,
					1,
					1
				],
				"roughnessFactor":0.5530382990837097
			}
		}
	],
	"meshes":[
		{
			"name":"Text.001",
			"primitives":[
				{
					"attributes":{
						"POSITION":0,
						"NORMAL":1,
						"TEXCOORD_0":2
					},
					"indices":3,
					"material":0
				}
			]
		},
		{
			"name":"arrow_model-mesh.001",
			"primitives":[
				{
					"attributes":{
						"POSITION":4,
						"NORMAL":5,
						"TEXCOORD_0":6
					},
					"indices":7,
					"material":1
				}
			]
		},
		{
			"name":"Text",
			"primitives":[
				{
					"attributes":{
						"POSITION":8,
						"NORMAL":9,
						"TEXCOORD_0":10
					},
					"indices":11,
					"material":2
				}
			]
		},
		{
			"name":"arrow_model-mesh",
			"primitives":[
				{
					"attributes":{
						"POSITION":12,
						"NORMAL":13,
						"TEXCOORD_0":14
					},
					"indices":15,
					"material":3
				}
			]
		}
	],
	"accessors":[
		{
			"bufferView":0,
			"componentType":5126,
			"count":1266,
			"max":[
				2.072014331817627,
				0.08999999612569809,
				-2.5941243171691895
			],
			"min":[
				-2.270986318588257,
				-0.08999999612569809,
				-4.294124603271484
			],
			"type":"VEC3"
		},
		{
			"bufferView":1,
			"componentType":5126,
			"count":1266,
			"type":"VEC3"
		},
		{
			"bufferView":2,
			"componentType":5126,
			"count":1266,
			"type":"VEC2"
		},
		{
			"bufferView":3,
			"componentType":5123,
			"count":1848,
			"type":"SCALAR"
		},
		{
			"bufferView":4,
			"componentType":5126,
			"count":28,
			"max":[
				1.4614441394805908,
				4.040634632110596,
				0.5069950819015503
			],
			"min":[
				-1.4785557985305786,
				0.6206345558166504,
				-0.4930049479007721
			],
			"type":"VEC3"
		},
		{
			"bufferView":5,
			"componentType":5126,
			"count":28,
			"type":"VEC3"
		},
		{
			"bufferView":6,
			"componentType":5126,
			"count":28,
			"type":"VEC2"
		},
		{
			"bufferView":7,
			"componentType":5123,
			"count":30,
			"type":"SCALAR"
		},
		{
			"bufferView":8,
			"componentType":5126,
			"count":716,
			"max":[
				2.072014331817627,
				0.08999999612569809,
				-2.5941243171691895
			],
			"min":[
				-2.270986318588257,
				-0.08999999612569809,
				-4.294124603271484
			],
			"type":"VEC3"
		},
		{
			"bufferView":9,
			"componentType":5126,
			"count":716,
			"type":"VEC3"
		},
		{
			"bufferView":10,
			"componentType":5126,
			"count":716,
			"type":"VEC2"
		},
		{
			"bufferView":11,
			"componentType":5123,
			"count":1848,
			"type":"SCALAR"
		},
		{
			"bufferView":12,
			"componentType":5126,
			"count":28,
			"max":[
				1.4614441394805908,
				4.040634632110596,
				0.5069950819015503
			],
			"min":[
				-1.4785557985305786,
				0.6206345558166504,
				-0.4930049479007721
			],
			"type":"VEC3"
		},
		{
			"bufferView":13,
			"componentType":5126,
			"count":28,
			"type":"VEC3"
		},
		{
			"bufferView":14,
			"componentType":5126,
			"count":28,
			"type":"VEC2"
		},
		{
			"bufferView":15,
			"componentType":5123,
			"count":30,
			"type":"SCALAR"
		},
		{
			"bufferView":16,
			"componentType":5126,
			"count":100,
			"max":[
				3.3333333333333335
			],
			"min":[
				0.03333333333333333
			],
			"type":"SCALAR"
		},
		{
			"bufferView":17,
			"componentType":5126,
			"count":100,
			"type":"VEC3"
		},
		{
			"bufferView":18,
			"componentType":5126,
			"count":2,
			"max":[
				3.3333333333333335
			],
			"min":[
				0.03333333333333333
			],
			"type":"SCALAR"
		},
		{
			"bufferView":19,
			"componentType":5126,
			"count":2,
			"type":"VEC4"
		},
		{
			"bufferView":20,
			"componentType":5126,
			"count":2,
			"type":"VEC3"
		},
		{
			"bufferView":21,
			"componentType":5126,
			"count":100,
			"type":"VEC3"
		},
		{
			"bufferView":22,
			"componentType":5126,
			"count":2,
			"type":"VEC4"
		},
		{
			"bufferView":23,
			"componentType":5126,
			"count":2,
			"type":"VEC3"
		}
	],
	"bufferViews":[
		{
			"buffer":0,
			"byteLength":15192,
			"byteOffset":0,
			"target":34962
		},
		{
			"buffer":0,
			"byteLength":15192,
			"byteOffset":15192,
			"target":34962
		},
		{
			"buffer":0,
			"byteLength":10128,
			"byteOffset":30384,
			"target":34962
		},
		{
			"buffer":0,
			"byteLength":3696,
			"byteOffset":40512,
			"target":34963
		},
		{
			"buffer":0,
			"byteLength":336,
			"byteOffset":44208,
			"target":34962
		},
		{
			"buffer":0,
			"byteLength":336,
			"byteOffset":44544,
			"target":34962
		},
		{
			"buffer":0,
			"byteLength":224,
			"byteOffset":44880,
			"target":34962
		},
		{
			"buffer":0,
			"byteLength":60,
			"byteOffset":45104,
			"target":34963
		},
		{
			"buffer":0,
			"byteLength":8592,
			"byteOffset":45164,
			"target":34962
		},
		{
			"buffer":0,
			"byteLength":8592,
			"byteOffset":53756,
			"target":34962
		},
		{
			"buffer":0,
			"byteLength":5728,
			"byteOffset":62348,
			"target":34962
		},
		{
			"buffer":0,
			"byteLength":3696,
			"byteOffset":68076,
			"target":34963
		},
		{
			"buffer":0,
			"byteLength":336,
			"byteOffset":71772,
			"target":34962
		},
		{
			"buffer":0,
			"byteLength":336,
			"byteOffset":72108,
			"target":34962
		},
		{
			"buffer":0,
			"byteLength":224,
			"byteOffset":72444,
			"target":34962
		},
		{
			"buffer":0,
			"byteLength":60,
			"byteOffset":72668,
			"target":34963
		},
		{
			"buffer":0,
			"byteLength":400,
			"byteOffset":72728
		},
		{
			"buffer":0,
			"byteLength":1200,
			"byteOffset":73128
		},
		{
			"buffer":0,
			"byteLength":8,
			"byteOffset":74328
		},
		{
			"buffer":0,
			"byteLength":32,
			"byteOffset":74336
		},
		{
			"buffer":0,
			"byteLength":24,
			"byteOffset":74368
		},
		{
			"buffer":0,
			"byteLength":1200,
			"byteOffset":74392
		},
		{
			"buffer":0,
			"byteLength":32,
			"byteOffset":75592
		},
		{
			"buffer":0,
			"byteLength":24,
			"byteOffset":75624
		}
	],
	"buffers":[
		{
			"byteLength":75648,
			"uri":"data:application/octet-stream;base64,"
		}
	]
}
