{
	"asset":{
		"generator":"Khronos glTF Blender I/O v3.6.27",
		"version":"2.0"
	},
	"extensionsUsed":[
		"KHR_materials_clearcoat",
		"KHR_materials_transmission"
	],
	"scene":0,
	"scenes":[
		{
			"name":"Scene",
			"nodes":[
				3
			]
		}
	],
	"nodes":[
		{
			"mesh":0,
			"name":"Object_2"
		},
		{
			"mesh":1,
			"name":"Object_3"
		},
		{
			"children":[
				0,
				1
			],
			"name":"Waterbottle.obj.cleaner.materialmerger.gles"
		},
		{
			"children":[
				2
			],
			"name":"Sketchfab_model",
			"rotation":[
				-0.70710688829422,
				0,
				0,
				0.7071066498756409
			]
		}
	],
	"materials":[
		{
			"alphaMode":"BLEND",
			"doubleSided":true,
			"emissiveFactor":[
				0.017149390652775764,
				0.017149390652775764,
				0.017149390652775764
			],
			"extensions":{
				"KHR_materials_clearcoat":{
					"clearcoatFactor":0.35537347197532654,
					"clearcoatRoughnessFactor":0
				},
				"KHR_materials_transmission":{
					"transmissionFactor":0.9799923896789551
				}
			},
			"name":"Material.023",
			"pbrMetallicRoughness":{
				"baseColorFactor":[
					1,
					1,
					1,
					0.25
				],
				"metallicFactor":0.27610519528388977,
				"roughnessFactor":0
			}
		},
		{
			"doubleSided":true,
			"extensions":{
				"KHR_materials_clearcoat":{
					"clearcoatFactor":0.06269054859876633,
					"clearcoatRoughnessFactor":0.17244665324687958
				}
			},
			"name":"Material.024",
			"pbrMetallicRoughness":{
				"baseColorFactor":[
					0.04742753133177757,
					0.34603241086006165,
					0.4219779074192047,
					1
				],
				"metallicFactor":0,
				"roughnessFactor":0.4651295840740204
			}
		}
	],
	"meshes":[
		{
			"name":"Object_0",
			"primitives":[
				{
					"attributes":{
						"POSITION":0,
						"NORMAL":1,
						"TEXCOORD_0":2
					},
					"indices":3,
					"material":0
				}
			]
		},
		{
			"name":"Object_1",
			"primitives":[
				{
					"attributes":{
						"POSITION":4,
						"NORMAL":5,
						"TEXCOORD_0":6
					},
					"indices":7,
					"material":1
				}
			]
		}
	],
	"accessors":[
		{
			"bufferView":0,
			"componentType":5126,
			"count":4612,
			"max":[
				-10.032194137573242,
				6.717209815979004,
				29.378582000732422
			],
			"min":[
				-20.426183700561523,
				-2.7098770141601562,
				1.0238200426101685
			],
			"type":"VEC3"
		},
		{
			"bufferView":1,
			"componentType":5126,
			"count":4612,
			"type":"VEC3"
		},
		{
			"bufferView":2,
			"componentType":5126,
			"count":4612,
			"type":"VEC2"
		},
		{
			"bufferView":3,
			"componentType":5123,
			"count":25716,
			"type":"SCALAR"
		},
		{
			"bufferView":4,
			"componentType":5126,
			"count":896,
			"max":[
				-11.932076454162598,
				3.647351026535034,
				30.17752456665039
			],
			"min":[
				-16.05929183959961,
				-0.41531699895858765,
				28.057281494140625
			],
			"type":"VEC3"
		},
		{
			"bufferView":5,
			"componentType":5126,
			"count":896,
			"type":"VEC3"
		},
		{
			"bufferView":6,
			"componentType":5126,
			"count":896,
			"type":"VEC2"
		},
		{
			"bufferView":7,
			"componentType":5123,
			"count":5172,
			"type":"SCALAR"
		}
	],
	"bufferViews":[
		{
			"buffer":0,
			"byteLength":55344,
			"byteOffset":0,
			"target":34962
		},
		{
			"buffer":0,
			"byteLength":55344,
			"byteOffset":55344,
			"target":34962
		},
		{
			"buffer":0,
			"byteLength":36896,
			"byteOffset":110688,
			"target":34962
		},
		{
			"buffer":0,
			"byteLength":51432,
			"byteOffset":147584,
			"target":34963
		},
		{
			"buffer":0,
			"byteLength":10752,
			"byteOffset":199016,
			"target":34962
		},
		{
			"buffer":0,
			"byteLength":10752,
			"byteOffset":209768,
			"target":34962
		},
		{
			"buffer":0,
			"byteLength":7168,
			"byteOffset":220520,
			"target":34962
		},
		{
			"buffer":0,
			"byteLength":10344,
			"byteOffset":227688,
			"target":34963
		}
	],
	"buffers":[
		{
			"byteLength":238032,
			"uri":"data:application/octet-stream;base64,"
		}
	]
}
